if (_typeface_js && _typeface_js.loadFace) _typeface_js.loadFace({"glyphs":{"0":{"ha":1273,"x_min":133,"x_max":1177,"o":"m 402 1598 l 450 1598 q 592 1472 592 1573 q 560 1314 576 1352 l 640 1329 l 671 1329 q 1114 934 977 1329 q 1177 507 1162 831 q 813 -237 1177 -30 l 703 -269 l 576 -269 q 165 111 349 -269 q 133 459 133 344 l 133 617 q 402 1598 133 1363 m 545 1187 q 481 570 497 967 q 608 111 498 111 l 640 111 q 782 617 755 111 q 545 1187 782 969 z "},"1":{"ha":722,"x_min":66,"x_max":636,"o":"m 414 1662 l 462 1662 q 636 1488 636 1636 q 526 -317 574 -317 q 383 -380 441 -380 l 367 -380 q 177 -206 233 -380 l 241 1107 q 66 1297 110 1107 q 414 1662 232 1662 z "},"2":{"ha":1147,"x_min":71,"x_max":1132,"o":"m 625 1630 q 1005 1297 891 1630 l 1005 1124 q 530 32 1005 905 l 530 16 l 704 16 q 1132 -111 1132 -23 l 1132 -127 q 498 -380 887 -380 l 340 -380 q 71 -159 158 -380 l 71 -111 q 356 490 71 -5 q 641 1219 641 1025 l 641 1234 q 593 1282 641 1257 l 546 1282 q 404 1029 521 1282 l 324 1013 q 166 1219 186 1013 q 578 1630 268 1630 l 625 1630 z "},"3":{"ha":1383,"x_min":113,"x_max":1253,"o":"m 952 1709 l 984 1709 q 1253 1519 1217 1709 l 1253 1472 q 905 1060 1253 1286 l 905 1029 q 1253 602 1253 886 q 857 -142 1253 221 q 556 -237 756 -237 q 382 -47 430 -237 q 604 174 382 30 q 889 649 889 452 q 541 839 820 711 q 477 1013 477 977 l 477 1044 q 715 1361 477 1144 l 667 1361 q 271 1314 491 1361 q 113 1488 113 1355 q 493 1693 113 1658 q 952 1709 774 1709 z "},"4":{"ha":1923,"x_min":108,"x_max":1912,"o":"m 1121 1725 q 1216 1646 1186 1704 q 1232 1345 1216 1596 q 1152 649 1232 1112 l 1168 649 q 1674 680 1510 680 q 1912 507 1912 643 q 1121 285 1912 324 l 1121 269 q 994 -570 1093 -570 q 931 -586 966 -586 q 772 -127 772 -586 l 772 237 q 535 222 614 222 l 440 222 q 155 364 155 222 q 108 475 124 368 q 788 1456 108 593 q 1121 1725 975 1725 m 852 1044 q 567 602 772 892 l 567 585 l 614 585 q 820 649 820 585 q 867 1029 820 755 l 867 1044 l 852 1044 z "},"5":{"ha":1395,"x_min":114,"x_max":1380,"o":"m 1158 1725 q 1380 1535 1380 1691 q 1016 1361 1380 1361 q 541 1155 541 1361 q 509 997 509 1062 q 1000 364 1000 808 l 1000 317 q 636 -349 1000 -192 q 462 -380 551 -380 q 193 -206 256 -380 l 193 -174 q 446 -32 193 -32 q 652 300 652 49 l 652 395 q 209 696 652 696 q 114 839 114 760 l 114 918 l 256 1377 q 161 1488 161 1377 q 509 1614 161 1614 q 1158 1725 627 1678 z "},"6":{"ha":1423,"x_min":85,"x_max":1351,"o":"m 1240 1741 q 1351 1614 1351 1709 q 1161 1329 1351 1550 q 876 475 966 1013 l 892 475 q 1335 79 1335 410 l 1335 63 q 908 -507 1335 -408 q 496 -142 639 -507 q 480 79 480 -8 l 480 95 l 449 95 q 85 16 354 95 l 85 32 l 496 348 q 876 1488 496 820 q 1240 1741 1083 1741 m 829 95 q 876 -127 844 -23 l 924 -127 l 971 32 q 876 95 956 95 l 829 95 z "},"7":{"ha":1799,"x_min":100,"x_max":1777,"o":"m 1065 1630 q 1334 1393 1334 1574 q 1208 965 1334 1248 l 1334 965 q 1777 775 1777 965 q 1081 585 1777 652 q 780 -332 865 -212 q 654 -380 701 -380 l 622 -380 q 448 -206 490 -380 l 448 -174 q 654 538 448 -129 l 305 538 q 100 728 100 560 q 385 902 100 902 q 796 981 796 910 l 907 1282 l 891 1282 q 574 1250 843 1282 q 321 1409 321 1250 l 321 1440 q 590 1583 321 1583 q 1065 1630 900 1630 z "},"8":{"ha":1238,"x_min":151,"x_max":1195,"o":"m 673 1788 l 752 1788 q 1053 1488 1053 1736 l 1053 1393 q 863 633 1053 1118 q 1195 16 1105 353 l 1195 -47 q 593 -475 1195 -393 q 151 -127 151 -395 l 151 -111 q 293 32 171 32 q 467 -95 372 32 l 578 -127 l 625 -127 q 831 -32 806 -85 q 657 332 802 168 q 325 95 444 95 q 230 190 277 95 q 435 649 230 326 q 151 1266 151 1002 q 562 1756 151 1551 l 673 1788 m 483 1250 q 610 1013 562 1013 q 688 1409 688 1268 l 688 1440 l 673 1440 q 483 1250 590 1440 z "},"9":{"ha":1377,"x_min":122,"x_max":1261,"o":"m 787 1519 l 802 1519 q 961 1424 865 1519 q 1088 1456 1019 1456 q 1261 1266 1261 1400 l 1103 -364 q 913 -507 1034 -507 q 724 -95 741 -507 q 755 507 755 402 l 739 507 q 565 459 632 459 l 517 459 q 122 854 122 519 q 644 1503 122 1286 q 787 1519 730 1519 m 486 886 l 486 854 q 517 823 491 823 q 850 1219 713 823 q 486 886 486 1084 z "},"\u001d":{"ha":1269,"x_min":41,"x_max":1215,"o":"m 41 0 l 41 1630 l 1215 1630 l 1215 0 l 41 0 m 95 54 l 1160 54 l 1160 1576 l 95 1576 l 95 54 z "},"\u0000":{"ha":0,"x_min":0,"x_max":0,"o":""}," ":{"ha":785,"x_min":0,"x_max":0,"o":""},"!":{"ha":765,"x_min":149,"x_max":576,"o":"m 418 1709 q 576 1488 557 1709 q 466 300 529 300 q 339 222 415 222 q 149 633 181 222 q 387 1709 181 1709 l 418 1709 m 371 -111 q 545 -332 523 -111 q 371 -475 492 -475 l 355 -475 q 181 -301 181 -449 q 371 -111 215 -111 z "},"\"":{"ha":1268,"x_min":144,"x_max":1125,"o":"m 286 1693 l 334 1693 q 539 1250 539 1693 l 539 1202 q 413 965 539 1053 q 144 1503 144 1054 l 144 1551 q 286 1693 164 1693 m 951 1678 l 1015 1678 q 1125 1409 1103 1678 q 967 1060 1125 1194 q 808 1424 823 1139 l 808 1503 q 951 1678 808 1678 z "},"#":{"ha":2198,"x_min":90,"x_max":2115,"o":"m 1308 1820 l 1340 1820 q 1388 1725 1388 1804 l 1388 1614 q 1293 1234 1388 1500 l 1609 1234 l 1830 1773 q 1925 1804 1883 1804 l 1957 1804 q 2083 1678 2083 1804 l 2083 1630 q 1988 1187 2083 1401 q 2083 1076 2083 1187 l 2083 1060 q 1878 934 2068 1018 q 1704 507 1799 766 q 2115 300 2115 437 q 1751 190 2115 222 l 1609 190 q 1371 -380 1587 190 q 1150 -633 1312 -502 l 1134 -633 l 1134 -617 q 1103 -396 1134 -568 q 1213 190 1118 -227 l 786 190 q 517 -364 745 168 q 327 -522 423 -522 q 248 -380 248 -522 q 390 158 248 -186 l 374 158 q 200 142 309 158 q 90 285 90 189 q 549 490 90 459 l 722 870 l 232 870 q 90 1013 90 891 l 90 1029 q 549 1202 90 1202 q 944 1266 944 1202 q 1308 1820 1171 1820 m 1213 886 l 1134 886 q 928 507 928 576 l 944 507 q 1166 522 1079 522 l 1324 522 q 1451 902 1324 557 l 1435 902 q 1213 886 1300 886 z "},"$":{"ha":1554,"x_min":38,"x_max":1510,"o":"m 1019 1946 l 1099 1946 q 1162 1836 1162 1921 l 1162 1773 q 1336 1614 1336 1741 l 1336 1598 q 1130 1472 1336 1472 q 1067 870 1067 1203 q 1510 395 1510 591 l 1510 253 q 1099 -206 1510 48 l 909 -285 q 734 -538 909 -484 l 718 -538 q 623 -396 623 -538 l 623 -317 l 465 -317 q 38 79 38 -239 l 85 111 l 338 32 q 671 95 671 47 q 734 696 734 620 q 386 1234 386 939 q 877 1741 386 1575 q 987 1931 905 1741 l 1019 1946 m 734 1250 l 734 1202 q 782 1107 744 1107 l 829 1361 q 734 1250 801 1361 m 1004 490 q 956 174 987 439 q 1130 317 1061 216 l 1130 364 q 1004 490 1053 481 z "},"%":{"ha":1322,"x_min":87,"x_max":1290,"o":"m 973 1646 l 1005 1646 q 1131 1488 1131 1646 q 593 -95 1131 1259 q 340 -444 467 -444 l 309 -444 q 166 -269 166 -444 q 609 949 216 -7 q 973 1646 823 1565 m 292 1440 q 482 1234 429 1440 l 482 1202 q 292 997 429 997 l 261 997 q 87 1219 112 997 q 292 1440 123 1440 m 1036 142 l 1116 142 q 1290 -32 1290 100 l 1290 -63 q 1068 -332 1215 -332 l 973 -332 q 815 -95 815 -332 q 1036 142 903 142 z "},"&":{"ha":1695,"x_min":11,"x_max":1609,"o":"m 755 1678 q 1087 1377 1087 1640 q 818 665 1087 1202 q 770 554 787 661 q 897 300 846 377 q 1482 490 1272 490 q 1609 475 1596 475 l 1609 459 q 1040 -32 1609 253 q 1150 -349 1150 -250 l 1150 -459 q 1024 -538 1109 -538 q 882 -285 909 -538 l 787 -142 q 216 -380 419 -317 l 201 -380 q 11 -190 72 -380 l 11 -174 q 406 585 11 -99 l 406 602 q 264 1107 270 906 l 264 1202 q 755 1678 264 1625 m 565 1187 l 612 934 q 802 1377 713 1068 l 802 1393 l 770 1409 q 565 1187 565 1409 z "},"'":{"ha":728,"x_min":125,"x_max":568,"o":"m 299 1662 q 568 1187 461 1662 q 425 965 568 965 l 410 965 q 125 1424 228 965 l 125 1440 q 299 1662 125 1662 z "},"(":{"ha":933,"x_min":155,"x_max":851,"o":"m 692 1725 l 724 1725 q 851 1598 851 1725 q 677 1345 851 1557 q 503 412 503 819 q 740 -237 503 -52 l 740 -349 q 566 -491 740 -491 l 550 -491 q 202 -63 366 -491 q 155 348 155 137 q 455 1583 155 1032 q 692 1725 606 1725 z "},")":{"ha":988,"x_min":98,"x_max":810,"o":"m 319 1725 l 351 1725 q 810 728 749 1601 q 414 -380 810 248 q 193 -507 273 -507 q 98 -380 98 -474 l 98 -364 q 367 395 98 -232 q 414 680 414 575 l 414 854 q 208 1551 414 1202 l 208 1614 q 319 1725 208 1725 z "},"*":{"ha":1432,"x_min":135,"x_max":1291,"o":"m 594 1741 l 642 1741 q 752 1662 711 1741 l 705 1250 l 720 1250 q 1243 1424 1031 1424 l 1259 1424 q 1291 1393 1291 1419 q 863 997 1280 1246 q 1069 728 1069 800 q 974 665 1053 665 l 958 665 q 657 775 857 665 q 547 570 657 644 l 530 570 q 435 744 472 570 q 293 712 333 712 l 245 712 q 135 807 135 712 q 340 1029 135 862 q 151 1361 151 1229 q 214 1440 182 1433 l 262 1440 q 452 1345 323 1440 l 467 1345 q 594 1741 495 1712 z "},"+":{"ha":1347,"x_min":109,"x_max":1217,"o":"m 852 1314 q 1010 1029 1010 1314 l 1010 744 l 995 665 q 1217 475 1217 616 q 979 300 1217 349 q 710 -396 979 -396 q 551 -159 587 -396 l 551 -127 q 583 269 551 -31 l 551 285 l 314 285 q 109 412 193 285 l 109 475 q 599 649 109 649 q 805 1314 650 1314 l 852 1314 z "},",":{"ha":716,"x_min":113,"x_max":556,"o":"m 366 142 q 556 -32 556 103 l 556 -63 q 240 -412 462 -412 l 208 -412 q 113 -206 155 -412 q 366 142 189 142 z "},"-":{"ha":1331,"x_min":115,"x_max":1159,"o":"m 273 602 l 589 602 q 1159 380 1159 602 q 732 190 1159 237 l 732 205 q 716 190 716 205 q 115 412 115 190 l 115 443 q 273 602 146 602 z "},".":{"ha":652,"x_min":123,"x_max":487,"o":"m 297 237 l 313 237 q 487 79 487 205 l 487 32 q 328 -127 455 -127 l 281 -127 q 123 63 138 -127 q 297 237 123 195 z "},"/":{"ha":1169,"x_min":127,"x_max":1014,"o":"m 840 1614 l 856 1614 q 1014 1440 993 1614 q 475 -47 840 564 q 222 -206 363 -206 l 191 -206 q 127 -142 166 -206 l 127 -79 q 428 807 127 46 q 777 1598 668 1598 q 840 1614 804 1614 z "},":":{"ha":521,"x_min":56,"x_max":420,"o":"m 198 902 l 214 902 q 420 728 385 902 q 230 538 360 538 l 214 538 q 56 680 56 559 l 56 760 q 198 902 76 902 m 245 222 q 404 79 404 199 l 404 47 q 261 -95 383 -95 q 103 63 103 -64 q 245 222 131 222 z "},";":{"ha":600,"x_min":43,"x_max":518,"o":"m 233 934 q 455 728 455 865 l 455 712 q 328 538 455 606 l 265 538 q 43 712 43 564 l 43 760 q 233 934 43 890 m 328 190 l 360 190 q 518 32 518 159 l 518 -79 q 376 -332 503 -227 l 281 -332 q 123 -174 123 -301 l 123 -95 q 328 190 174 190 z "},"<":{"ha":1310,"x_min":37,"x_max":1223,"o":"m 955 1314 q 1050 1234 1020 1292 l 1050 1187 q 559 680 1050 1001 l 543 680 q 1018 380 574 633 q 1223 95 1223 249 q 1113 16 1202 16 l 1097 16 q 100 507 778 16 q 37 649 37 591 q 448 997 37 922 q 955 1314 852 1314 z "},"=":{"ha":1276,"x_min":45,"x_max":1200,"o":"m 868 1187 l 931 1187 q 1200 1029 1200 1187 l 1200 997 q 488 775 1200 850 q 298 760 380 775 q 45 934 45 777 l 45 949 q 361 1139 45 1139 q 868 1187 501 1187 m 804 633 q 1074 475 994 633 q 535 237 1074 286 q 314 205 363 205 q 140 364 140 237 l 140 412 q 630 633 140 576 l 804 633 z "},">":{"ha":1578,"x_min":57,"x_max":1497,"o":"m 199 1345 q 1308 1092 886 1234 q 1497 807 1497 981 l 1497 791 q 817 174 1497 589 q 579 111 713 111 q 516 190 579 119 l 516 222 q 1101 823 522 404 q 184 1029 1021 854 q 57 1187 57 1099 l 57 1219 q 199 1345 57 1345 z "},"?":{"ha":1072,"x_min":58,"x_max":992,"o":"m 723 1583 q 992 1361 897 1583 l 992 1219 q 612 554 992 1106 l 596 475 q 628 364 596 444 q 454 174 593 174 l 422 174 q 201 443 264 174 q 470 1013 201 711 q 628 1266 628 1226 l 517 1266 q 121 1219 421 1266 q 58 1282 97 1219 l 58 1345 q 549 1567 186 1567 q 723 1583 549 1583 m 517 -79 q 739 -301 739 -118 q 533 -507 687 -507 q 311 -285 311 -480 q 517 -79 363 -79 z "},"@":{"ha":1795,"x_min":73,"x_max":1750,"o":"m 1086 1709 q 1703 1234 1558 1709 q 1750 965 1729 1145 q 1386 111 1750 349 q 1006 16 1216 16 q 563 459 563 86 q 547 538 547 459 q 1069 1187 629 1187 q 1371 981 1371 1135 l 1386 981 l 1386 1013 q 1149 1345 1348 1345 l 1069 1345 q 579 965 854 1345 q 420 427 420 709 q 1038 -174 420 -174 l 1069 -174 q 1386 -142 1161 -174 l 1386 -174 q 737 -427 979 -427 q 73 364 170 -427 l 73 490 q 579 1503 73 1043 q 1086 1709 869 1709 m 911 522 l 911 490 q 975 380 911 406 l 1086 380 q 1101 728 1101 617 l 1101 807 q 1054 839 1101 839 q 911 522 911 760 z "},"A":{"ha":1138,"x_min":56,"x_max":1084,"o":"m 578 1519 q 989 490 840 1519 q 1084 -32 1084 211 l 1084 -47 q 926 -237 1059 -237 q 688 158 768 -237 l 451 158 q 325 -633 388 -633 l 245 -649 l 214 -649 q 56 -491 56 -612 q 309 1297 166 1002 q 578 1519 435 1519 m 483 522 l 515 507 l 610 507 l 610 522 q 546 870 546 808 q 483 522 508 870 z "},"B":{"ha":1224,"x_min":17,"x_max":1125,"o":"m 349 1678 l 492 1678 q 903 1297 903 1595 l 903 1266 q 761 870 903 1086 q 1093 348 964 764 q 1125 174 1125 286 l 1125 95 q 840 -364 1125 -257 q 745 -396 788 -396 l 634 -396 q 476 -317 567 -396 q 317 -507 430 -507 l 302 -507 q 159 269 159 -507 l 159 570 q 191 1377 159 1044 q 96 1345 139 1345 q 17 1440 17 1345 l 17 1503 q 349 1678 253 1678 m 492 1440 l 492 1044 l 507 1044 q 650 1282 650 1121 q 492 1440 614 1440 m 476 696 l 476 680 q 492 -127 492 161 q 808 205 808 1 q 618 617 808 413 q 476 696 536 677 z "},"C":{"ha":919,"x_min":59,"x_max":913,"o":"m 692 1583 q 819 1440 794 1583 q 629 1155 819 1407 q 407 285 407 726 l 407 237 q 661 -301 407 -224 q 913 -364 913 -317 l 913 -412 q 581 -617 869 -617 l 549 -617 q 75 47 215 -617 q 59 222 59 188 q 581 1551 59 1023 l 692 1583 z "},"D":{"ha":1263,"x_min":100,"x_max":1160,"o":"m 385 1693 l 416 1693 q 1065 1202 814 1693 q 1160 696 1160 994 l 1160 602 q 574 -586 1160 -310 l 479 -602 q 400 -491 400 -570 l 337 -538 l 258 -538 q 100 237 100 -538 q 115 1377 100 450 q 210 1614 152 1408 q 385 1693 324 1693 m 369 1393 l 369 1377 q 448 507 448 1113 l 448 -142 q 464 -206 448 -178 q 448 -269 448 -233 l 448 -317 q 764 570 764 70 l 764 791 q 385 1393 764 1230 l 369 1393 z "},"E":{"ha":886,"x_min":83,"x_max":843,"o":"m 637 1614 q 843 1472 797 1614 q 606 1266 843 1384 l 431 1155 q 448 918 448 997 l 448 665 q 685 696 563 696 q 764 633 757 665 l 764 585 q 463 317 764 443 l 479 285 q 748 -332 479 -332 l 780 -380 l 780 -412 q 590 -602 780 -541 l 526 -602 q 194 -285 290 -602 q 83 728 115 -182 q 194 1456 83 1456 l 543 1614 l 637 1614 z "},"F":{"ha":1036,"x_min":83,"x_max":969,"o":"m 605 1630 l 700 1630 q 969 1424 866 1630 q 621 1266 969 1266 q 463 965 463 1266 l 478 854 l 494 854 q 557 870 530 854 q 732 696 732 823 l 732 680 q 510 490 732 528 q 637 -396 637 -231 q 478 -554 637 -528 l 463 -554 q 257 -285 313 -554 q 83 1029 83 640 q 605 1630 153 1630 z "},"G":{"ha":1186,"x_min":55,"x_max":1099,"o":"m 640 1678 l 656 1678 q 814 1519 788 1678 q 625 1282 814 1478 q 403 364 403 895 l 435 158 l 450 158 l 704 443 q 799 475 768 475 q 1068 205 1068 444 q 1099 -332 1099 112 q 862 -586 1099 -586 q 672 -301 672 -522 l 672 -142 l 656 -142 q 372 -222 568 -222 q 134 -47 235 -181 q 55 364 55 158 q 545 1646 55 1332 q 640 1678 597 1678 z "},"H":{"ha":1246,"x_min":54,"x_max":1131,"o":"m 229 1630 q 434 854 434 1630 q 450 665 450 854 q 703 617 600 665 l 703 949 q 783 1598 703 1598 q 861 1630 783 1626 l 893 1630 q 1115 665 1115 1630 q 1131 16 1115 577 q 941 -349 1131 -349 q 719 317 772 -349 l 608 300 q 450 332 542 300 l 450 142 q 292 -444 450 -444 q 244 -459 292 -459 q 54 47 54 -459 q 70 1440 54 465 q 229 1630 96 1630 z "},"I":{"ha":597,"x_min":87,"x_max":483,"o":"m 245 1472 q 452 1171 452 1432 q 483 459 483 949 l 483 427 q 325 -285 483 -285 q 277 -301 325 -301 q 87 0 139 -301 l 87 965 q 198 1472 87 1472 l 245 1472 z "},"J":{"ha":968,"x_min":30,"x_max":853,"o":"m 647 1314 q 853 507 853 1314 l 853 285 q 520 -491 853 -309 q 347 -522 408 -522 q 30 -63 30 -396 l 30 0 q 93 111 30 85 l 157 111 q 362 -174 200 91 l 378 -174 q 520 427 520 -2 q 489 997 520 745 q 647 1314 505 1310 z "},"K":{"ha":1149,"x_min":57,"x_max":1086,"o":"m 231 1678 l 279 1678 q 452 1139 452 1678 l 452 981 l 469 981 q 753 1329 469 1002 q 959 1535 829 1535 q 1086 1377 1065 1535 q 564 649 987 1156 q 500 490 500 538 q 864 -16 500 393 q 911 -142 911 -105 q 785 -254 911 -237 q 405 63 681 -254 q 215 -349 405 -349 q 57 -47 57 -277 q 168 1630 117 1630 l 231 1678 z "},"L":{"ha":1002,"x_min":80,"x_max":982,"o":"m 302 1598 l 349 1598 q 460 1250 435 1598 q 428 -32 428 546 q 745 0 654 0 l 808 0 q 982 -142 982 -21 l 982 -174 q 349 -364 885 -364 l 333 -364 q 80 -63 98 -364 l 80 -32 q 238 1583 143 1583 q 302 1598 266 1598 z "},"M":{"ha":1507,"x_min":98,"x_max":1411,"o":"m 382 1662 q 715 1013 572 1662 q 762 965 751 965 q 1111 1598 953 1598 l 1126 1598 q 1348 1219 1324 1598 q 1411 -174 1348 656 q 1301 -427 1411 -364 l 1237 -427 q 1000 602 1000 -317 l 1000 617 l 984 696 l 968 696 q 715 490 968 562 q 414 886 547 490 l 398 886 q 272 -317 356 -317 q 208 -332 244 -332 q 98 -16 98 -274 l 98 459 q 240 1614 98 1614 q 382 1662 355 1662 z "},"N":{"ha":1289,"x_min":99,"x_max":1191,"o":"m 1048 1472 q 1191 1297 1191 1451 l 1191 1187 q 985 -301 1138 -301 q 890 -349 970 -349 l 843 -349 q 463 190 604 -349 q 416 332 441 190 l 399 332 l 399 -95 q 241 -396 399 -396 l 210 -396 q 99 -159 99 -347 l 99 237 q 178 1393 99 1393 q 304 1440 257 1440 l 352 1440 q 637 791 519 1440 q 764 364 653 787 l 779 364 q 938 1393 831 1290 q 1048 1472 938 1472 z "},"O":{"ha":1167,"x_min":66,"x_max":1063,"o":"m 431 1503 l 494 1503 q 573 1424 515 1503 l 573 1409 l 446 997 q 399 443 414 818 q 446 79 414 180 q 684 649 684 205 q 699 760 699 649 q 652 1139 684 932 q 715 1234 684 1234 l 747 1234 q 1048 712 982 1234 q 1063 602 1063 649 q 557 -285 1063 -66 q 446 -301 494 -301 q 66 205 124 -301 l 66 554 q 336 1472 66 1183 q 431 1503 387 1503 z "},"P":{"ha":1114,"x_min":54,"x_max":1020,"o":"m 608 1583 l 624 1583 q 956 1345 791 1583 q 1020 1107 1020 1166 l 1020 1060 q 671 459 1020 619 l 608 459 q 561 522 585 459 q 640 1029 608 761 q 624 1155 624 1090 q 466 -127 466 944 l 466 -222 q 292 -427 434 -427 q 86 -111 86 -427 q 54 696 54 468 l 54 744 q 181 1361 54 1361 q 197 1377 181 1377 l 260 1377 l 307 1345 l 323 1345 q 608 1583 419 1583 z "},"Q":{"ha":1428,"x_min":50,"x_max":1395,"o":"m 540 1646 q 651 1519 639 1646 q 397 585 397 1036 q 540 158 432 201 l 556 158 l 587 174 q 492 538 492 375 q 651 712 524 712 l 667 712 q 841 554 773 712 q 888 807 888 554 q 857 1202 857 1141 l 857 1219 q 968 1297 869 1265 q 1253 886 1253 1166 q 1268 791 1268 886 l 1268 696 q 1094 95 1268 452 q 1395 -396 1395 -323 l 1395 -444 q 1300 -491 1395 -475 q 762 -159 1010 -435 q 572 -206 619 -206 l 509 -206 q 113 190 287 -206 q 50 585 65 340 q 319 1488 50 988 q 540 1646 441 1646 z "},"R":{"ha":1216,"x_min":76,"x_max":1120,"o":"m 266 1646 l 345 1646 q 440 1472 440 1596 q 693 1535 618 1535 q 1120 1107 1120 1458 l 1120 1076 q 756 412 1120 871 q 725 237 725 349 q 883 -63 725 98 q 899 -127 899 -91 l 899 -206 q 788 -317 899 -317 l 725 -317 q 440 -79 629 -317 q 250 -475 440 -475 l 234 -475 q 76 -222 101 -475 l 76 -16 q 266 1646 76 1646 m 471 997 q 456 602 471 905 l 456 585 l 471 585 q 741 1060 741 989 l 741 1092 q 646 1187 741 1187 q 471 1013 566 1187 l 471 997 z "},"S":{"ha":998,"x_min":85,"x_max":908,"o":"m 702 1598 q 813 1456 813 1563 q 465 1171 813 1417 q 401 1029 401 1065 q 686 585 401 920 q 908 32 908 310 l 908 -95 q 512 -570 908 -406 q 195 -349 195 -544 l 195 -317 q 370 -269 195 -285 q 528 -47 528 -146 l 528 95 q 132 807 528 228 q 85 1029 85 929 q 686 1598 85 1444 l 702 1598 z "},"T":{"ha":1291,"x_min":50,"x_max":1221,"o":"m 667 1503 l 746 1472 q 1046 1503 937 1503 q 1221 1361 1221 1476 q 825 1092 1221 1240 q 682 -396 825 -75 q 509 -475 591 -475 q 334 -301 397 -475 q 461 1060 414 218 l 319 1060 q 50 1234 50 1060 q 461 1424 50 1424 q 667 1503 500 1424 z "},"U":{"ha":1137,"x_min":83,"x_max":1033,"o":"m 289 1598 q 431 1234 431 1598 l 431 1013 q 526 174 431 436 l 558 174 q 701 1139 637 358 q 827 1314 763 1285 q 1033 744 1033 1314 q 653 -206 1033 1 l 543 -206 q 83 886 83 -206 l 83 1393 q 289 1598 83 1598 z "},"V":{"ha":1291,"x_min":64,"x_max":1204,"o":"m 159 1598 l 254 1598 q 524 475 387 1598 l 539 475 q 1030 1503 888 1503 q 1078 1519 1030 1519 l 1125 1519 q 1204 1345 1204 1489 q 650 -127 1204 1125 q 507 -206 568 -206 l 492 -206 q 239 32 298 -206 q 64 1472 127 785 q 159 1598 64 1531 z "},"W":{"ha":1485,"x_min":90,"x_max":1388,"o":"m 232 1456 q 390 981 390 1456 q 469 317 406 964 q 564 791 501 317 q 770 981 640 981 q 991 712 991 890 l 1008 712 q 1276 1424 1122 1424 q 1388 1124 1378 1424 q 1071 -269 1305 -269 q 1023 -285 1071 -285 l 1008 -285 q 786 -63 786 -220 q 691 -317 766 -63 q 532 -412 618 -412 q 279 -237 353 -412 q 90 1029 90 220 l 90 1187 q 232 1456 90 1456 z "},"X":{"ha":1217,"x_min":42,"x_max":1118,"o":"m 137 1456 l 184 1456 q 485 965 321 1456 q 564 854 549 854 q 944 1329 831 1329 l 976 1329 q 1118 1187 1118 1309 q 770 522 1118 1038 q 754 459 754 494 q 976 -32 969 72 q 849 -222 949 -222 q 532 127 670 -222 q 137 -206 286 -206 l 105 -206 l 90 -95 q 327 507 90 39 q 42 1329 66 1012 l 42 1361 q 137 1456 74 1424 z "},"Y":{"ha":1278,"x_min":55,"x_max":1179,"o":"m 941 1519 l 957 1519 q 1147 1393 1094 1519 q 1179 1297 1179 1341 l 1179 1282 q 831 -222 1179 655 q 498 -475 671 -475 l 482 -475 q 387 -427 400 -475 l 387 -396 q 593 317 387 -159 q 704 760 656 533 q 419 633 523 633 l 324 633 q 55 1076 127 633 l 55 1155 q 134 1424 71 1424 l 165 1424 q 355 1092 298 1424 q 403 949 355 1048 q 783 1393 637 1046 q 941 1519 843 1519 z "},"Z":{"ha":1179,"x_min":18,"x_max":1158,"o":"m 683 1488 q 1015 1124 968 1488 q 461 -111 1015 744 l 794 -111 q 1158 -317 1108 -111 l 1158 -332 q 541 -538 978 -538 q 18 -222 92 -538 l 18 -142 q 351 459 18 -36 q 635 1139 635 912 q 588 1155 605 1155 q 240 1092 475 1155 q 98 1250 98 1141 l 98 1266 q 556 1488 98 1441 l 683 1488 z "},"[":{"ha":1234,"x_min":41,"x_max":1180,"o":"m 642 1883 q 1180 1756 1180 1883 l 1180 1662 q 959 1551 1112 1551 l 737 1551 q 515 1488 515 1535 l 515 1202 q 468 -174 515 795 l 484 -174 q 864 -396 825 -174 q 626 -570 864 -539 l 610 -570 q 41 -317 41 -570 q 151 1598 80 -317 q 642 1883 272 1883 z "},"\\":{"ha":997,"x_min":41,"x_max":943,"o":"m 199 1662 q 468 1266 341 1662 q 943 -32 893 369 q 800 -269 943 -269 q 389 585 645 -231 q 41 1503 41 1411 q 199 1662 72 1662 z "},"]":{"ha":1029,"x_min":41,"x_max":975,"o":"m 737 1883 q 975 1488 927 1883 q 911 300 911 967 l 927 237 l 911 205 q 927 190 911 190 l 911 32 l 911 -206 q 468 -617 911 -559 q 56 -412 56 -585 l 56 -364 q 420 -159 56 -183 l 484 -159 q 515 -127 515 -159 l 515 142 q 595 1567 515 688 l 215 1567 q 41 1709 41 1567 l 41 1741 q 737 1883 41 1883 z "},"_":{"ha":2136,"x_min":41,"x_max":2082,"o":"m 705 -95 q 2066 -317 2066 -127 l 2082 -412 q 1829 -522 2017 -522 q 769 -444 1160 -444 l 373 -444 q 41 -285 41 -444 l 41 -269 q 405 -95 41 -95 l 705 -95 z "},"`":{"ha":408,"x_min":41,"x_max":353,"o":"m 353 732 l 307 732 l 83 869 q 51 896 62 882 q 41 924 41 909 q 55 959 41 945 q 91 972 68 972 q 118 964 104 972 q 156 932 132 956 l 353 732 z "},"{":{"ha":1029,"x_min":41,"x_max":975,"o":"m 753 1693 l 800 1693 q 975 1583 975 1673 q 737 1329 975 1539 q 673 854 690 1160 q 484 617 644 761 q 642 -111 642 460 q 753 -301 696 -175 q 531 -475 753 -437 q 246 95 246 -381 l 246 253 q 88 459 246 388 q 41 696 41 534 q 326 949 41 749 q 500 1551 326 1276 q 753 1693 655 1693 z "},"|":{"ha":427,"x_min":41,"x_max":373,"o":"m 168 1725 l 231 1725 q 373 649 373 1725 l 373 570 q 262 -332 373 -332 q 151 -396 237 -396 q 41 -127 41 -357 l 41 1250 q 168 1725 41 1725 z "},"}":{"ha":744,"x_min":41,"x_max":690,"o":"m 262 1725 l 294 1725 q 610 1409 508 1725 l 610 1297 q 563 918 610 1138 q 690 649 563 871 l 690 617 q 626 475 690 532 q 658 269 658 404 l 658 79 q 341 -412 547 -412 l 262 -412 q 120 -317 168 -412 l 120 -237 q 278 158 120 -184 q 294 285 294 271 q 262 570 262 537 l 278 680 q 215 918 231 760 l 262 1314 l 262 1345 q 56 1519 262 1434 l 41 1583 q 262 1725 96 1725 z "},"~":{"ha":1266,"x_min":41,"x_max":1212,"o":"m 341 744 q 705 538 479 696 l 817 522 q 1101 554 1078 554 q 1212 412 1212 507 q 817 111 1212 189 q 341 300 595 111 q 168 158 283 158 q 41 253 104 158 l 41 332 q 341 744 132 744 z "},"¢":{"ha":1709,"x_min":41,"x_max":1655,"o":"m 975 1693 l 1022 1693 q 1180 1535 1180 1667 l 1180 1234 q 1291 1107 1279 1234 l 1291 1060 q 1149 965 1227 965 q 1022 317 1069 440 l 1038 317 q 1592 459 1592 412 l 1607 459 q 1655 364 1655 443 q 880 -95 1655 13 q 705 -301 810 -252 l 642 -301 q 547 -79 547 -263 l 547 -63 q 41 427 41 47 l 41 475 q 420 1060 41 749 q 785 1234 597 1162 q 959 1678 847 1678 q 975 1693 959 1693 m 405 412 q 610 332 479 332 q 705 823 658 530 q 405 412 405 636 z "},"£":{"ha":1678,"x_min":41,"x_max":1624,"o":"m 1196 1519 l 1322 1519 q 1481 1361 1481 1488 q 1291 1187 1481 1280 q 1022 807 1196 1076 l 1022 791 l 1244 791 q 1497 680 1380 772 l 1497 602 q 880 395 1364 395 l 785 395 q 578 63 759 394 l 578 47 q 1227 95 968 95 q 1624 -111 1624 73 q 1370 -285 1550 -285 l 1196 -285 q 183 -396 849 -285 l 168 -396 q 41 -237 41 -336 l 41 -174 q 341 427 41 -60 q 326 443 341 443 q 246 570 246 484 l 246 617 q 420 775 246 744 l 531 775 q 1196 1519 988 1442 z "},"¨":{"ha":489,"x_min":41,"x_max":435,"o":"m 50 874 l 98 923 q 115 931 107 931 q 134 922 123 931 l 180 872 q 187 855 187 863 q 179 837 187 846 l 132 786 q 115 774 121 774 q 98 783 106 774 l 47 841 q 41 857 41 849 q 50 874 41 865 m 298 874 l 346 923 q 363 931 355 931 q 381 922 370 931 l 428 872 q 435 855 435 863 q 427 838 435 846 l 380 786 q 363 774 368 774 q 346 783 353 774 l 294 842 q 288 857 288 849 q 298 874 288 865 z "},"´":{"ha":408,"x_min":41,"x_max":353,"o":"m 238 932 q 276 964 262 956 q 303 972 290 972 q 339 959 326 972 q 353 924 353 945 q 343 896 353 909 q 311 869 332 882 l 87 731 l 41 731 l 238 932 z "},"¸":{"ha":372,"x_min":41,"x_max":317,"o":"m 41 -197 q 144 -232 98 -232 q 208 -217 189 -232 q 227 -172 227 -203 q 194 -129 227 -142 q 125 -118 167 -118 q 102 -119 114 -118 l 134 0 l 177 0 l 152 -71 q 194 -67 174 -68 q 285 -95 252 -67 q 317 -172 317 -122 q 278 -253 317 -223 q 169 -283 238 -283 q 41 -262 95 -283 l 41 -197 z "},"ˆ":{"ha":490,"x_min":41,"x_max":435,"o":"m 41 732 l 198 972 l 278 972 l 435 732 l 396 732 l 238 878 l 80 732 l 41 732 z "},"ˇ":{"ha":490,"x_min":41,"x_max":435,"o":"m 41 972 l 80 972 l 238 827 l 396 972 l 435 972 l 278 731 l 198 731 l 41 972 z "},"˘":{"ha":491,"x_min":41,"x_max":437,"o":"m 41 915 l 75 915 q 126 842 87 865 q 239 819 165 819 q 352 842 313 819 q 402 915 391 865 l 437 915 q 373 778 423 825 q 239 732 323 732 q 106 779 157 732 q 41 915 55 825 z "},"˙":{"ha":241,"x_min":41,"x_max":186,"o":"m 50 874 l 97 923 q 106 929 101 927 q 115 931 111 931 q 124 929 119 931 q 132 923 128 927 l 180 871 q 185 865 184 869 q 186 855 186 861 q 184 845 186 849 q 179 837 183 841 l 131 785 q 120 776 123 778 q 115 774 117 774 q 104 776 109 774 q 97 782 100 778 l 46 841 q 42 847 43 844 q 41 857 41 851 q 43 865 41 861 q 50 874 45 869 z "},"˚":{"ha":336,"x_min":41,"x_max":281,"o":"m 92 852 q 112 804 92 824 q 160 785 132 785 q 208 804 189 785 q 228 852 228 824 q 208 900 228 880 q 160 920 188 920 q 112 900 132 920 q 92 852 92 880 m 41 852 q 75 938 41 903 q 160 972 110 972 q 247 938 212 972 q 281 852 281 903 q 247 767 281 802 q 160 732 212 732 q 75 767 110 732 q 41 852 41 802 z "},"˛":{"ha":345,"x_min":41,"x_max":290,"o":"m 224 0 q 150 -81 176 -42 q 123 -157 123 -120 q 141 -208 123 -189 q 191 -227 159 -227 q 238 -217 218 -227 q 271 -184 258 -206 l 290 -195 q 229 -260 266 -237 q 148 -283 192 -283 q 71 -259 100 -283 q 41 -198 41 -235 q 82 -92 41 -146 q 191 0 123 -37 l 224 0 z "},"˜":{"ha":484,"x_min":41,"x_max":430,"o":"m 430 937 q 384 833 416 867 q 298 798 351 798 l 295 798 q 218 814 261 798 q 141 830 174 830 q 100 816 115 830 q 77 768 85 802 l 41 768 q 87 875 54 840 q 174 911 120 911 q 251 895 205 910 q 327 879 294 879 l 330 879 q 369 892 354 879 q 393 937 384 906 l 430 937 z "},"˝":{"ha":494,"x_min":41,"x_max":440,"o":"m 41 732 l 138 917 q 169 960 155 947 q 201 972 184 972 q 233 959 220 972 q 247 927 247 945 q 240 903 247 916 q 219 876 233 890 l 80 732 l 41 732 m 234 732 l 332 917 q 362 960 348 947 q 394 972 377 972 q 427 959 413 972 q 440 927 440 945 q 433 903 440 916 q 412 876 426 890 l 273 732 l 234 732 z "},"‘":{"ha":538,"x_min":41,"x_max":484,"o":"m 231 1187 q 41 1361 41 1226 l 41 1392 q 357 1741 136 1741 l 389 1741 q 484 1535 442 1741 q 231 1187 408 1187 z "},"’":{"ha":538,"x_min":41,"x_max":484,"o":"m 294 1741 q 484 1567 484 1702 l 484 1535 q 168 1187 389 1187 l 136 1187 q 41 1392 83 1187 q 294 1741 117 1741 z "},"“":{"ha":1160,"x_min":41,"x_max":1105,"o":"m 231 1187 q 41 1361 41 1226 l 41 1392 q 357 1741 136 1741 l 389 1741 q 484 1535 442 1741 q 231 1187 408 1187 m 852 1187 q 662 1361 662 1226 l 662 1392 q 979 1741 757 1741 l 1010 1741 q 1105 1535 1063 1741 q 852 1187 1029 1187 z "},"”":{"ha":1160,"x_min":41,"x_max":1105,"o":"m 294 1741 q 484 1567 484 1702 l 484 1535 q 168 1187 389 1187 l 136 1187 q 41 1392 83 1187 q 294 1741 117 1741 m 916 1741 q 1105 1567 1105 1702 l 1105 1535 q 789 1187 1010 1187 l 757 1187 q 662 1392 704 1187 q 916 1741 738 1741 z "},"…":{"ha":1489,"x_min":41,"x_max":1434,"o":"m 311 217 l 325 209 q 416 56 416 131 q 396 -15 416 20 l 372 -56 q 231 -136 302 -136 q 156 -115 193 -136 l 115 -91 q 41 31 41 -48 q 73 153 41 84 q 216 233 119 233 q 311 217 258 233 m 819 217 l 833 209 q 925 56 925 131 q 905 -15 925 20 l 881 -56 q 739 -136 810 -136 q 665 -115 702 -136 l 624 -91 q 549 32 549 -48 q 582 153 549 84 q 725 233 628 233 q 819 217 767 233 m 1329 217 l 1342 209 q 1434 55 1434 131 q 1414 -15 1434 20 l 1390 -56 q 1249 -136 1320 -136 q 1174 -115 1211 -136 l 1133 -91 q 1058 32 1058 -48 q 1090 153 1058 84 q 1234 233 1137 233 q 1329 217 1276 233 z "},"€":{"ha":2034,"x_min":16,"x_max":1947,"o":"m 1567 1630 q 1884 1409 1884 1575 l 1884 1377 q 1805 1250 1884 1291 q 1520 1266 1776 1250 q 1156 1060 1291 1198 q 1425 934 1425 1010 q 1156 760 1425 810 q 840 665 840 760 q 808 570 808 580 l 823 570 l 1013 585 q 1393 490 1393 570 q 918 237 1393 383 q 728 205 778 205 l 728 190 q 903 111 759 111 q 1773 253 996 111 l 1820 253 q 1947 127 1947 234 q 1552 -174 1947 -9 q 887 -301 1206 -301 l 823 -301 q 349 16 538 -301 q 317 127 349 63 q 159 95 288 111 q 16 253 16 144 q 349 475 16 395 l 380 617 l 380 649 q 222 791 222 660 q 586 1013 222 959 q 1409 1614 791 1400 q 1567 1630 1492 1630 z "}}}
